# xmcd
#
# Track frame offsets: 
#        180
#        16367
#        45610
#        77898
#        102310
#
# Disc length: 1435 seconds
#
# Revision: 0
# Processed by: cddbd v1.5.2PL0 Copyright (c) Steve Scherf et al.
# Submitted via: ExactAudioCopy v1.0b1
#
DISCID=35059905
DTITLE=Afrika Bambaataa - Pupunanny CDM
DYEAR=1994
DGENRE=Eurodance
TTITLE0=Pupunanny (F.M. Mix)
TTITLE1=Pupunanny (Extended Mix)
TTITLE2=Pupunanny (Extemporanea Mix)
TTITLE3=Pupunanny (Bam-Bam-Bam-Plastika Mix)
TTITLE4=Pupunanny (Accapella Mix)
EXTD=
EXTT0=
EXTT1=
EXTT2=
EXTT3=
EXTT4=
PLAYORDER=
